<mxfile host="app.diagrams.net" agent="Mozilla/5.0 (Windows NT 10.0; Win64; x64) AppleWebKit/537.36 (KHTML, like Gecko) Chrome/131.0.0.0 Safari/537.36 Edg/131.0.0.0" version="24.8.6" pages="2">
  <diagram id="R2lEEEUBdFMjLlhIrx00" name="Page-1">
    <mxGraphModel dx="1921" dy="480" grid="1" gridSize="10" guides="1" tooltips="1" connect="1" arrows="1" fold="1" page="1" pageScale="1" pageWidth="850" pageHeight="1100" math="0" shadow="0" extFonts="Permanent Marker^https://fonts.googleapis.com/css?family=Permanent+Marker">
      <root>
        <mxCell id="0" />
        <mxCell id="1" parent="0" />
        <mxCell id="fLYHL4tcDxd5EElu4zDd-1" value="&lt;font face=&quot;Times New Roman&quot;&gt;Users&lt;/font&gt;" style="rounded=0;whiteSpace=wrap;html=1;" parent="1" vertex="1">
          <mxGeometry x="140" y="180" width="120" height="60" as="geometry" />
        </mxCell>
        <mxCell id="fLYHL4tcDxd5EElu4zDd-2" value="&lt;font face=&quot;Times New Roman&quot;&gt;Room&lt;/font&gt;" style="rounded=0;whiteSpace=wrap;html=1;" parent="1" vertex="1">
          <mxGeometry x="570" y="165" width="120" height="60" as="geometry" />
        </mxCell>
        <mxCell id="fLYHL4tcDxd5EElu4zDd-5" value="&lt;font face=&quot;Times New Roman&quot;&gt;name&lt;/font&gt;" style="ellipse;whiteSpace=wrap;html=1;" parent="1" vertex="1">
          <mxGeometry x="100" y="100" width="60" height="30" as="geometry" />
        </mxCell>
        <mxCell id="fLYHL4tcDxd5EElu4zDd-6" value="&lt;font face=&quot;Times New Roman&quot;&gt;address&lt;/font&gt;" style="ellipse;whiteSpace=wrap;html=1;" parent="1" vertex="1">
          <mxGeometry x="280" y="120" width="90" height="30" as="geometry" />
        </mxCell>
        <mxCell id="fLYHL4tcDxd5EElu4zDd-9" value="&lt;font face=&quot;Times New Roman&quot;&gt;username&lt;/font&gt;" style="ellipse;whiteSpace=wrap;html=1;" parent="1" vertex="1">
          <mxGeometry x="2.5" y="220" width="65" height="30" as="geometry" />
        </mxCell>
        <mxCell id="fLYHL4tcDxd5EElu4zDd-10" value="&lt;font face=&quot;Times New Roman&quot;&gt;password&lt;/font&gt;" style="ellipse;whiteSpace=wrap;html=1;" parent="1" vertex="1">
          <mxGeometry x="2.5" y="170" width="70" height="30" as="geometry" />
        </mxCell>
        <mxCell id="fLYHL4tcDxd5EElu4zDd-11" value="&lt;u&gt;&lt;font face=&quot;Times New Roman&quot;&gt;id&lt;/font&gt;&lt;/u&gt;" style="ellipse;whiteSpace=wrap;html=1;" parent="1" vertex="1">
          <mxGeometry x="40" y="130" width="60" height="20" as="geometry" />
        </mxCell>
        <mxCell id="fLYHL4tcDxd5EElu4zDd-16" value="&lt;font face=&quot;Times New Roman&quot;&gt;&lt;u&gt;id&lt;/u&gt;&lt;/font&gt;" style="ellipse;whiteSpace=wrap;html=1;" parent="1" vertex="1">
          <mxGeometry x="15" y="380" width="80" height="40" as="geometry" />
        </mxCell>
        <mxCell id="fLYHL4tcDxd5EElu4zDd-17" value="fullname" style="ellipse;whiteSpace=wrap;html=1;" parent="1" vertex="1">
          <mxGeometry x="-77" y="380" width="77" height="40" as="geometry" />
        </mxCell>
        <mxCell id="fLYHL4tcDxd5EElu4zDd-18" value="&lt;font face=&quot;Times New Roman&quot;&gt;address&lt;/font&gt;" style="ellipse;whiteSpace=wrap;html=1;" parent="1" vertex="1">
          <mxGeometry x="-160" y="430" width="80" height="40" as="geometry" />
        </mxCell>
        <mxCell id="fLYHL4tcDxd5EElu4zDd-19" value="&lt;font face=&quot;Times New Roman&quot;&gt;&lt;u&gt;id&lt;/u&gt;&lt;/font&gt;" style="ellipse;whiteSpace=wrap;html=1;" parent="1" vertex="1">
          <mxGeometry x="450" y="70" width="70" height="40" as="geometry" />
        </mxCell>
        <mxCell id="fLYHL4tcDxd5EElu4zDd-20" value="&lt;font face=&quot;Times New Roman&quot;&gt;price&lt;/font&gt;" style="ellipse;whiteSpace=wrap;html=1;" parent="1" vertex="1">
          <mxGeometry x="700" y="75" width="80" height="30" as="geometry" />
        </mxCell>
        <mxCell id="fLYHL4tcDxd5EElu4zDd-22" value="&lt;font face=&quot;Times New Roman&quot;&gt;room_type&lt;/font&gt;" style="ellipse;whiteSpace=wrap;html=1;" parent="1" vertex="1">
          <mxGeometry x="570" y="50" width="100" height="40" as="geometry" />
        </mxCell>
        <mxCell id="fLYHL4tcDxd5EElu4zDd-62" value="&lt;font face=&quot;Times New Roman&quot;&gt;Search&lt;/font&gt;&lt;div&gt;&lt;font face=&quot;Times New Roman&quot;&gt;&amp;nbsp;&amp;amp;&lt;/font&gt;&lt;/div&gt;&lt;div&gt;&lt;font face=&quot;Times New Roman&quot;&gt;&amp;nbsp;Books&lt;/font&gt;&lt;/div&gt;" style="rhombus;whiteSpace=wrap;html=1;" parent="1" vertex="1">
          <mxGeometry x="380" y="170" width="80" height="80" as="geometry" />
        </mxCell>
        <mxCell id="fLYHL4tcDxd5EElu4zDd-68" value="&lt;font face=&quot;Times New Roman&quot;&gt;phone_number&lt;/font&gt;" style="ellipse;whiteSpace=wrap;html=1;" parent="1" vertex="1">
          <mxGeometry x="170" y="95" width="100" height="35" as="geometry" />
        </mxCell>
        <mxCell id="BmfCAO9PKZx3MC8V4XvH-1" value="" style="endArrow=none;html=1;rounded=0;exitX=1;exitY=0;exitDx=0;exitDy=0;entryX=0;entryY=0.5;entryDx=0;entryDy=0;" parent="1" source="fLYHL4tcDxd5EElu4zDd-1" target="fLYHL4tcDxd5EElu4zDd-6" edge="1">
          <mxGeometry width="50" height="50" relative="1" as="geometry">
            <mxPoint x="320" y="290" as="sourcePoint" />
            <mxPoint x="370" y="240" as="targetPoint" />
          </mxGeometry>
        </mxCell>
        <mxCell id="BmfCAO9PKZx3MC8V4XvH-2" value="" style="endArrow=none;html=1;rounded=0;exitX=0.5;exitY=0;exitDx=0;exitDy=0;entryX=0.5;entryY=1;entryDx=0;entryDy=0;" parent="1" source="fLYHL4tcDxd5EElu4zDd-1" target="fLYHL4tcDxd5EElu4zDd-68" edge="1">
          <mxGeometry width="50" height="50" relative="1" as="geometry">
            <mxPoint x="180" y="180" as="sourcePoint" />
            <mxPoint x="210" y="135" as="targetPoint" />
          </mxGeometry>
        </mxCell>
        <mxCell id="BmfCAO9PKZx3MC8V4XvH-4" value="" style="endArrow=none;html=1;rounded=0;exitX=0.25;exitY=0;exitDx=0;exitDy=0;entryX=0.5;entryY=1;entryDx=0;entryDy=0;" parent="1" source="fLYHL4tcDxd5EElu4zDd-1" target="fLYHL4tcDxd5EElu4zDd-5" edge="1">
          <mxGeometry width="50" height="50" relative="1" as="geometry">
            <mxPoint x="150" y="170" as="sourcePoint" />
            <mxPoint x="180" y="125" as="targetPoint" />
          </mxGeometry>
        </mxCell>
        <mxCell id="BmfCAO9PKZx3MC8V4XvH-5" value="" style="endArrow=none;html=1;rounded=0;exitX=0;exitY=0;exitDx=0;exitDy=0;entryX=0.5;entryY=1;entryDx=0;entryDy=0;" parent="1" source="fLYHL4tcDxd5EElu4zDd-1" target="fLYHL4tcDxd5EElu4zDd-11" edge="1">
          <mxGeometry width="50" height="50" relative="1" as="geometry">
            <mxPoint x="180" y="190" as="sourcePoint" />
            <mxPoint x="140" y="140" as="targetPoint" />
          </mxGeometry>
        </mxCell>
        <mxCell id="BmfCAO9PKZx3MC8V4XvH-6" value="" style="endArrow=none;html=1;rounded=0;entryX=1;entryY=0.5;entryDx=0;entryDy=0;" parent="1" target="fLYHL4tcDxd5EElu4zDd-10" edge="1">
          <mxGeometry width="50" height="50" relative="1" as="geometry">
            <mxPoint x="140" y="200" as="sourcePoint" />
            <mxPoint x="150" y="150" as="targetPoint" />
          </mxGeometry>
        </mxCell>
        <mxCell id="BmfCAO9PKZx3MC8V4XvH-7" value="" style="endArrow=none;html=1;rounded=0;exitX=0;exitY=0.75;exitDx=0;exitDy=0;entryX=1;entryY=0.5;entryDx=0;entryDy=0;" parent="1" source="fLYHL4tcDxd5EElu4zDd-1" target="fLYHL4tcDxd5EElu4zDd-9" edge="1">
          <mxGeometry width="50" height="50" relative="1" as="geometry">
            <mxPoint x="200" y="210" as="sourcePoint" />
            <mxPoint x="160" y="160" as="targetPoint" />
          </mxGeometry>
        </mxCell>
        <mxCell id="BmfCAO9PKZx3MC8V4XvH-9" value="" style="endArrow=none;html=1;rounded=0;exitX=0;exitY=0;exitDx=0;exitDy=0;entryX=1;entryY=1;entryDx=0;entryDy=0;" parent="1" source="fLYHL4tcDxd5EElu4zDd-2" target="fLYHL4tcDxd5EElu4zDd-19" edge="1">
          <mxGeometry width="50" height="50" relative="1" as="geometry">
            <mxPoint x="550" y="160" as="sourcePoint" />
            <mxPoint x="510" y="110" as="targetPoint" />
          </mxGeometry>
        </mxCell>
        <mxCell id="BmfCAO9PKZx3MC8V4XvH-10" value="" style="endArrow=none;html=1;rounded=0;exitX=0.75;exitY=0;exitDx=0;exitDy=0;entryX=0;entryY=1;entryDx=0;entryDy=0;" parent="1" source="fLYHL4tcDxd5EElu4zDd-2" target="fLYHL4tcDxd5EElu4zDd-20" edge="1">
          <mxGeometry width="50" height="50" relative="1" as="geometry">
            <mxPoint x="731.5" y="150" as="sourcePoint" />
            <mxPoint x="681.5" y="89" as="targetPoint" />
          </mxGeometry>
        </mxCell>
        <mxCell id="BmfCAO9PKZx3MC8V4XvH-11" value="" style="endArrow=none;html=1;rounded=0;exitX=0.25;exitY=0;exitDx=0;exitDy=0;entryX=0.5;entryY=1;entryDx=0;entryDy=0;" parent="1" source="fLYHL4tcDxd5EElu4zDd-2" target="fLYHL4tcDxd5EElu4zDd-22" edge="1">
          <mxGeometry width="50" height="50" relative="1" as="geometry">
            <mxPoint x="610" y="161" as="sourcePoint" />
            <mxPoint x="560" y="100" as="targetPoint" />
          </mxGeometry>
        </mxCell>
        <mxCell id="BmfCAO9PKZx3MC8V4XvH-18" value="" style="endArrow=none;html=1;rounded=0;exitX=0;exitY=0.75;exitDx=0;exitDy=0;entryX=1;entryY=0.5;entryDx=0;entryDy=0;" parent="1" source="fLYHL4tcDxd5EElu4zDd-2" target="fLYHL4tcDxd5EElu4zDd-62" edge="1">
          <mxGeometry width="50" height="50" relative="1" as="geometry">
            <mxPoint x="532" y="195" as="sourcePoint" />
            <mxPoint x="490" y="260" as="targetPoint" />
          </mxGeometry>
        </mxCell>
        <mxCell id="BmfCAO9PKZx3MC8V4XvH-19" value="" style="endArrow=none;html=1;rounded=0;exitX=0;exitY=0.5;exitDx=0;exitDy=0;entryX=1;entryY=0.5;entryDx=0;entryDy=0;" parent="1" source="fLYHL4tcDxd5EElu4zDd-62" target="fLYHL4tcDxd5EElu4zDd-1" edge="1">
          <mxGeometry width="50" height="50" relative="1" as="geometry">
            <mxPoint x="580" y="220" as="sourcePoint" />
            <mxPoint x="490" y="220" as="targetPoint" />
          </mxGeometry>
        </mxCell>
        <mxCell id="BmfCAO9PKZx3MC8V4XvH-26" value="" style="endArrow=none;html=1;rounded=0;entryX=0.75;entryY=0;entryDx=0;entryDy=0;exitX=0.5;exitY=1;exitDx=0;exitDy=0;" parent="1" source="fLYHL4tcDxd5EElu4zDd-16" target="fLYHL4tcDxd5EElu4zDd-4" edge="1">
          <mxGeometry width="50" height="50" relative="1" as="geometry">
            <mxPoint x="725" y="430" as="sourcePoint" />
            <mxPoint x="637" y="510" as="targetPoint" />
          </mxGeometry>
        </mxCell>
        <mxCell id="BmfCAO9PKZx3MC8V4XvH-27" value="" style="endArrow=none;html=1;rounded=0;entryX=0.5;entryY=0;entryDx=0;entryDy=0;exitX=0.5;exitY=1;exitDx=0;exitDy=0;" parent="1" source="fLYHL4tcDxd5EElu4zDd-17" target="fLYHL4tcDxd5EElu4zDd-4" edge="1">
          <mxGeometry width="50" height="50" relative="1" as="geometry">
            <mxPoint x="378" y="500" as="sourcePoint" />
            <mxPoint x="290" y="580" as="targetPoint" />
          </mxGeometry>
        </mxCell>
        <mxCell id="rIPB2zGvpNcosHAhXYTp-1" value="1" style="text;html=1;strokeColor=none;fillColor=none;align=center;verticalAlign=middle;whiteSpace=wrap;rounded=0;" parent="1" vertex="1">
          <mxGeometry x="260" y="185" width="40" height="20" as="geometry" />
        </mxCell>
        <mxCell id="rIPB2zGvpNcosHAhXYTp-2" value="M" style="text;html=1;strokeColor=none;fillColor=none;align=center;verticalAlign=middle;whiteSpace=wrap;rounded=0;" parent="1" vertex="1">
          <mxGeometry x="510" y="185" width="40" height="20" as="geometry" />
        </mxCell>
        <mxCell id="xUq2yvBSmd-1U9rwPhvT-15" value="contactno" style="ellipse;whiteSpace=wrap;html=1;" parent="1" vertex="1">
          <mxGeometry x="-225" y="490" width="90" height="50" as="geometry" />
        </mxCell>
        <mxCell id="xUq2yvBSmd-1U9rwPhvT-19" value="" style="endArrow=none;html=1;rounded=0;exitX=1;exitY=0.5;exitDx=0;exitDy=0;" parent="1" source="fLYHL4tcDxd5EElu4zDd-4" edge="1">
          <mxGeometry width="50" height="50" relative="1" as="geometry">
            <mxPoint x="800" y="540" as="sourcePoint" />
            <mxPoint x="20" y="550" as="targetPoint" />
          </mxGeometry>
        </mxCell>
        <mxCell id="IlOnFfMFa660focGQdXx-3" value="" style="endArrow=none;html=1;rounded=0;entryX=0.5;entryY=1;entryDx=0;entryDy=0;exitX=1;exitY=0.5;exitDx=0;exitDy=0;" parent="1" source="SqUY4-1HLdQczIWp4SpF-24" target="fLYHL4tcDxd5EElu4zDd-2" edge="1">
          <mxGeometry width="50" height="50" relative="1" as="geometry">
            <mxPoint x="630" y="560" as="sourcePoint" />
            <mxPoint x="610" y="225" as="targetPoint" />
            <Array as="points">
              <mxPoint x="630" y="540" />
            </Array>
          </mxGeometry>
        </mxCell>
        <mxCell id="SqUY4-1HLdQczIWp4SpF-1" value="&lt;font face=&quot;Times New Roman&quot;&gt;Admin&lt;/font&gt;" style="rounded=0;whiteSpace=wrap;html=1;" parent="1" vertex="1">
          <mxGeometry x="570" y="860" width="120" height="60" as="geometry" />
        </mxCell>
        <mxCell id="SqUY4-1HLdQczIWp4SpF-5" value="&lt;font face=&quot;Times New Roman&quot;&gt;password&lt;/font&gt;" style="ellipse;whiteSpace=wrap;html=1;" parent="1" vertex="1">
          <mxGeometry x="610" y="950" width="80" height="40" as="geometry" />
        </mxCell>
        <mxCell id="SqUY4-1HLdQczIWp4SpF-6" value="" style="endArrow=none;html=1;rounded=0;entryX=1;entryY=0.5;entryDx=0;entryDy=0;exitX=0.5;exitY=1;exitDx=0;exitDy=0;" parent="1" target="fLYHL4tcDxd5EElu4zDd-4" edge="1">
          <mxGeometry width="50" height="50" relative="1" as="geometry">
            <mxPoint x="190" y="470" as="sourcePoint" />
            <mxPoint x="400" y="560" as="targetPoint" />
            <Array as="points">
              <mxPoint x="190" y="540" />
            </Array>
          </mxGeometry>
        </mxCell>
        <mxCell id="SqUY4-1HLdQczIWp4SpF-7" value="" style="endArrow=none;html=1;rounded=0;entryX=1;entryY=1;entryDx=0;entryDy=0;exitX=0;exitY=0.5;exitDx=0;exitDy=0;" parent="1" source="SqUY4-1HLdQczIWp4SpF-17" target="SqUY4-1HLdQczIWp4SpF-1" edge="1">
          <mxGeometry width="50" height="50" relative="1" as="geometry">
            <mxPoint x="700" y="690" as="sourcePoint" />
            <mxPoint x="612" y="770" as="targetPoint" />
          </mxGeometry>
        </mxCell>
        <mxCell id="SqUY4-1HLdQczIWp4SpF-8" value="" style="endArrow=none;html=1;rounded=0;entryX=0.5;entryY=0;entryDx=0;entryDy=0;exitX=0.75;exitY=1;exitDx=0;exitDy=0;" parent="1" source="SqUY4-1HLdQczIWp4SpF-1" target="SqUY4-1HLdQczIWp4SpF-5" edge="1">
          <mxGeometry width="50" height="50" relative="1" as="geometry">
            <mxPoint x="408" y="720" as="sourcePoint" />
            <mxPoint x="320" y="800" as="targetPoint" />
          </mxGeometry>
        </mxCell>
        <mxCell id="SqUY4-1HLdQczIWp4SpF-9" value="" style="endArrow=none;html=1;rounded=0;entryX=0;entryY=0;entryDx=0;entryDy=0;exitX=1;exitY=1;exitDx=0;exitDy=0;" parent="1" source="fLYHL4tcDxd5EElu4zDd-18" target="fLYHL4tcDxd5EElu4zDd-4" edge="1">
          <mxGeometry width="50" height="50" relative="1" as="geometry">
            <mxPoint x="638" y="690" as="sourcePoint" />
            <mxPoint x="550" y="770" as="targetPoint" />
          </mxGeometry>
        </mxCell>
        <mxCell id="SqUY4-1HLdQczIWp4SpF-14" style="edgeStyle=orthogonalEdgeStyle;rounded=0;orthogonalLoop=1;jettySize=auto;html=1;exitX=0.5;exitY=1;exitDx=0;exitDy=0;" parent="1" source="fLYHL4tcDxd5EElu4zDd-17" target="fLYHL4tcDxd5EElu4zDd-17" edge="1">
          <mxGeometry relative="1" as="geometry" />
        </mxCell>
        <mxCell id="SqUY4-1HLdQczIWp4SpF-15" value="&lt;font face=&quot;Times New Roman&quot;&gt;&lt;u&gt;id&lt;/u&gt;&lt;/font&gt;" style="ellipse;whiteSpace=wrap;html=1;" parent="1" vertex="1">
          <mxGeometry x="750" y="780" width="80" height="40" as="geometry" />
        </mxCell>
        <mxCell id="SqUY4-1HLdQczIWp4SpF-16" value="&lt;font face=&quot;Times New Roman&quot;&gt;name&lt;/font&gt;" style="ellipse;whiteSpace=wrap;html=1;" parent="1" vertex="1">
          <mxGeometry x="770" y="860" width="80" height="40" as="geometry" />
        </mxCell>
        <mxCell id="SqUY4-1HLdQczIWp4SpF-17" value="&lt;font face=&quot;Times New Roman&quot;&gt;username&lt;/font&gt;" style="ellipse;whiteSpace=wrap;html=1;" parent="1" vertex="1">
          <mxGeometry x="750" y="920" width="80" height="40" as="geometry" />
        </mxCell>
        <mxCell id="SqUY4-1HLdQczIWp4SpF-18" value="" style="endArrow=none;html=1;rounded=0;entryX=1;entryY=0.5;entryDx=0;entryDy=0;exitX=0;exitY=0.5;exitDx=0;exitDy=0;" parent="1" source="SqUY4-1HLdQczIWp4SpF-16" target="SqUY4-1HLdQczIWp4SpF-1" edge="1">
          <mxGeometry width="50" height="50" relative="1" as="geometry">
            <mxPoint x="710" y="700" as="sourcePoint" />
            <mxPoint x="622" y="780" as="targetPoint" />
          </mxGeometry>
        </mxCell>
        <mxCell id="SqUY4-1HLdQczIWp4SpF-19" value="" style="endArrow=none;html=1;rounded=0;entryX=1;entryY=0;entryDx=0;entryDy=0;exitX=0;exitY=1;exitDx=0;exitDy=0;" parent="1" source="SqUY4-1HLdQczIWp4SpF-15" target="SqUY4-1HLdQczIWp4SpF-1" edge="1">
          <mxGeometry width="50" height="50" relative="1" as="geometry">
            <mxPoint x="720" y="710" as="sourcePoint" />
            <mxPoint x="632" y="790" as="targetPoint" />
          </mxGeometry>
        </mxCell>
        <mxCell id="SqUY4-1HLdQczIWp4SpF-20" value="" style="endArrow=none;html=1;rounded=0;entryX=1;entryY=0.5;entryDx=0;entryDy=0;exitX=0;exitY=0.75;exitDx=0;exitDy=0;" parent="1" source="fLYHL4tcDxd5EElu4zDd-4" target="xUq2yvBSmd-1U9rwPhvT-15" edge="1">
          <mxGeometry width="50" height="50" relative="1" as="geometry">
            <mxPoint x="730" y="720" as="sourcePoint" />
            <mxPoint x="642" y="800" as="targetPoint" />
          </mxGeometry>
        </mxCell>
        <mxCell id="SqUY4-1HLdQczIWp4SpF-24" value="&lt;font face=&quot;Times New Roman&quot;&gt;Manages&lt;/font&gt;" style="rhombus;whiteSpace=wrap;html=1;" parent="1" vertex="1">
          <mxGeometry x="590" y="500" width="80" height="80" as="geometry" />
        </mxCell>
        <mxCell id="SqUY4-1HLdQczIWp4SpF-26" value="" style="endArrow=none;html=1;rounded=0;exitX=0.5;exitY=0;exitDx=0;exitDy=0;entryX=0.5;entryY=1;entryDx=0;entryDy=0;" parent="1" source="SqUY4-1HLdQczIWp4SpF-1" target="SqUY4-1HLdQczIWp4SpF-24" edge="1">
          <mxGeometry width="50" height="50" relative="1" as="geometry">
            <mxPoint x="640" y="510" as="sourcePoint" />
            <mxPoint x="630" y="580" as="targetPoint" />
            <Array as="points" />
          </mxGeometry>
        </mxCell>
        <mxCell id="fLYHL4tcDxd5EElu4zDd-4" value="&lt;font face=&quot;Times New Roman&quot;&gt;Guest&lt;/font&gt;" style="rounded=0;whiteSpace=wrap;html=1;" parent="1" vertex="1">
          <mxGeometry x="-77" y="510" width="120" height="60" as="geometry" />
        </mxCell>
        <mxCell id="SqUY4-1HLdQczIWp4SpF-33" value="" style="endArrow=none;html=1;rounded=0;" parent="1" edge="1">
          <mxGeometry width="50" height="50" relative="1" as="geometry">
            <mxPoint x="190" y="510" as="sourcePoint" />
            <mxPoint x="190" y="240" as="targetPoint" />
            <Array as="points" />
          </mxGeometry>
        </mxCell>
        <mxCell id="SqUY4-1HLdQczIWp4SpF-35" value="&lt;font face=&quot;Times New Roman&quot;&gt;&lt;u&gt;id&lt;/u&gt;&lt;/font&gt;" style="ellipse;whiteSpace=wrap;html=1;" parent="1" vertex="1">
          <mxGeometry x="-220" y="850" width="80" height="40" as="geometry" />
        </mxCell>
        <mxCell id="SqUY4-1HLdQczIWp4SpF-38" value="&lt;font face=&quot;Times New Roman&quot;&gt;Checkin&lt;/font&gt;&lt;span style=&quot;color: rgba(0, 0, 0, 0); font-family: monospace; font-size: 0px; text-align: start; text-wrap-mode: nowrap;&quot;&gt;%3CmxGraphModel%3E%3Croot%3E%3CmxCell%20id%3D%220%22%2F%3E%3CmxCell%20id%3D%221%22%20parent%3D%220%22%2F%3E%3CmxCell%20id%3D%222%22%20value%3D%22%26lt%3Bfont%20face%3D%26quot%3BTimes%20New%20Roman%26quot%3B%26gt%3B%26lt%3Bu%26gt%3Bid%26lt%3B%2Fu%26gt%3B%26lt%3B%2Ffont%26gt%3B%22%20style%3D%22ellipse%3BwhiteSpace%3Dwrap%3Bhtml%3D1%3B%22%20vertex%3D%221%22%20parent%3D%221%22%3E%3CmxGeometry%20x%3D%22730%22%20y%3D%22595%22%20width%3D%2280%22%20height%3D%2240%22%20as%3D%22geometry%22%2F%3E%3C%2FmxCell%3E%3C%2Froot%3E%3C%2FmxGraphModel%3E&lt;/span&gt;" style="ellipse;whiteSpace=wrap;html=1;" parent="1" vertex="1">
          <mxGeometry x="80" y="1070" width="80" height="40" as="geometry" />
        </mxCell>
        <mxCell id="SqUY4-1HLdQczIWp4SpF-39" value="&lt;font face=&quot;Times New Roman&quot;&gt;status&lt;/font&gt;" style="ellipse;whiteSpace=wrap;html=1;" parent="1" vertex="1">
          <mxGeometry x="-40" y="1080" width="80" height="40" as="geometry" />
        </mxCell>
        <mxCell id="SqUY4-1HLdQczIWp4SpF-40" value="&lt;font face=&quot;Times New Roman&quot;&gt;Checkout&lt;/font&gt;" style="ellipse;whiteSpace=wrap;html=1;" parent="1" vertex="1">
          <mxGeometry x="180" y="1020" width="80" height="40" as="geometry" />
        </mxCell>
        <mxCell id="SqUY4-1HLdQczIWp4SpF-43" value="" style="endArrow=none;html=1;rounded=0;entryX=1;entryY=0.5;entryDx=0;entryDy=0;exitX=0;exitY=0.25;exitDx=0;exitDy=0;" parent="1" source="SqUY4-1HLdQczIWp4SpF-29" target="SqUY4-1HLdQczIWp4SpF-35" edge="1">
          <mxGeometry width="50" height="50" relative="1" as="geometry">
            <mxPoint x="670" y="750" as="sourcePoint" />
            <mxPoint x="730" y="810" as="targetPoint" />
          </mxGeometry>
        </mxCell>
        <mxCell id="SqUY4-1HLdQczIWp4SpF-45" value="" style="endArrow=none;html=1;rounded=0;exitX=0.5;exitY=1;exitDx=0;exitDy=0;entryX=0.5;entryY=0;entryDx=0;entryDy=0;" parent="1" source="SqUY4-1HLdQczIWp4SpF-29" target="SqUY4-1HLdQczIWp4SpF-39" edge="1">
          <mxGeometry width="50" height="50" relative="1" as="geometry">
            <mxPoint x="260" y="840" as="sourcePoint" />
            <mxPoint x="180" y="920" as="targetPoint" />
            <Array as="points" />
          </mxGeometry>
        </mxCell>
        <mxCell id="SqUY4-1HLdQczIWp4SpF-47" value="" style="endArrow=none;html=1;rounded=0;entryX=0.5;entryY=0;entryDx=0;entryDy=0;exitX=0.75;exitY=1;exitDx=0;exitDy=0;" parent="1" source="SqUY4-1HLdQczIWp4SpF-29" target="SqUY4-1HLdQczIWp4SpF-38" edge="1">
          <mxGeometry width="50" height="50" relative="1" as="geometry">
            <mxPoint x="270" y="929" as="sourcePoint" />
            <mxPoint x="200" y="850" as="targetPoint" />
          </mxGeometry>
        </mxCell>
        <mxCell id="SqUY4-1HLdQczIWp4SpF-50" value="" style="endArrow=none;html=1;rounded=0;entryX=0.5;entryY=0;entryDx=0;entryDy=0;exitX=1;exitY=0.75;exitDx=0;exitDy=0;" parent="1" source="SqUY4-1HLdQczIWp4SpF-29" target="SqUY4-1HLdQczIWp4SpF-40" edge="1">
          <mxGeometry width="50" height="50" relative="1" as="geometry">
            <mxPoint x="310" y="890" as="sourcePoint" />
            <mxPoint x="230" y="880" as="targetPoint" />
          </mxGeometry>
        </mxCell>
        <mxCell id="SqUY4-1HLdQczIWp4SpF-51" value="&lt;font face=&quot;Times New Roman&quot;&gt;Performs&lt;/font&gt;" style="rhombus;whiteSpace=wrap;html=1;" parent="1" vertex="1">
          <mxGeometry x="300" y="850" width="80" height="80" as="geometry" />
        </mxCell>
        <mxCell id="Y3la6wGJPAbcGOUiKOl3-1" value="&lt;font face=&quot;Times New Roman&quot;&gt;guest_id&lt;/font&gt;" style="ellipse;whiteSpace=wrap;html=1;" parent="1" vertex="1">
          <mxGeometry x="-250" y="940" width="80" height="40" as="geometry" />
        </mxCell>
        <mxCell id="Y3la6wGJPAbcGOUiKOl3-2" value="&lt;font face=&quot;Times New Roman&quot;&gt;room_id&lt;/font&gt;" style="ellipse;whiteSpace=wrap;html=1;" parent="1" vertex="1">
          <mxGeometry x="-220" y="1010" width="80" height="40" as="geometry" />
        </mxCell>
        <mxCell id="Y3la6wGJPAbcGOUiKOl3-3" value="&lt;font face=&quot;Times New Roman&quot;&gt;room_no&lt;/font&gt;" style="ellipse;whiteSpace=wrap;html=1;" parent="1" vertex="1">
          <mxGeometry x="-160" y="1070" width="80" height="40" as="geometry" />
        </mxCell>
        <mxCell id="Y3la6wGJPAbcGOUiKOl3-5" value="" style="endArrow=none;html=1;rounded=0;entryX=1;entryY=0.5;entryDx=0;entryDy=0;exitX=0;exitY=0.5;exitDx=0;exitDy=0;" parent="1" source="SqUY4-1HLdQczIWp4SpF-29" target="Y3la6wGJPAbcGOUiKOl3-1" edge="1">
          <mxGeometry width="50" height="50" relative="1" as="geometry">
            <mxPoint x="160" y="900" as="sourcePoint" />
            <mxPoint x="158" y="1006" as="targetPoint" />
          </mxGeometry>
        </mxCell>
        <mxCell id="Y3la6wGJPAbcGOUiKOl3-6" value="" style="endArrow=none;html=1;rounded=0;entryX=0.5;entryY=0;entryDx=0;entryDy=0;exitX=0;exitY=0.75;exitDx=0;exitDy=0;" parent="1" source="SqUY4-1HLdQczIWp4SpF-29" target="Y3la6wGJPAbcGOUiKOl3-2" edge="1">
          <mxGeometry width="50" height="50" relative="1" as="geometry">
            <mxPoint x="160" y="900" as="sourcePoint" />
            <mxPoint x="168" y="1016" as="targetPoint" />
          </mxGeometry>
        </mxCell>
        <mxCell id="Y3la6wGJPAbcGOUiKOl3-8" value="" style="endArrow=none;html=1;rounded=0;entryX=0.5;entryY=0;entryDx=0;entryDy=0;exitX=0.25;exitY=1;exitDx=0;exitDy=0;" parent="1" source="SqUY4-1HLdQczIWp4SpF-29" target="Y3la6wGJPAbcGOUiKOl3-3" edge="1">
          <mxGeometry width="50" height="50" relative="1" as="geometry">
            <mxPoint x="170" y="910" as="sourcePoint" />
            <mxPoint x="60" y="970" as="targetPoint" />
          </mxGeometry>
        </mxCell>
        <mxCell id="SqUY4-1HLdQczIWp4SpF-29" value="&lt;font face=&quot;Times New Roman&quot;&gt;Transaction&lt;/font&gt;" style="rounded=0;whiteSpace=wrap;html=1;" parent="1" vertex="1">
          <mxGeometry x="-60" y="860" width="120" height="60" as="geometry" />
        </mxCell>
        <mxCell id="Y3la6wGJPAbcGOUiKOl3-13" value="" style="endArrow=none;html=1;rounded=0;entryX=1;entryY=0.5;entryDx=0;entryDy=0;exitX=0;exitY=0.5;exitDx=0;exitDy=0;" parent="1" source="SqUY4-1HLdQczIWp4SpF-51" target="SqUY4-1HLdQczIWp4SpF-29" edge="1">
          <mxGeometry width="50" height="50" relative="1" as="geometry">
            <mxPoint x="247" y="940" as="sourcePoint" />
            <mxPoint x="270" y="1060" as="targetPoint" />
          </mxGeometry>
        </mxCell>
        <mxCell id="Y3la6wGJPAbcGOUiKOl3-17" value="&lt;font face=&quot;Times New Roman&quot;&gt;Manages&lt;/font&gt;" style="rhombus;whiteSpace=wrap;html=1;" parent="1" vertex="1">
          <mxGeometry x="300" y="690" width="80" height="80" as="geometry" />
        </mxCell>
        <mxCell id="Y3la6wGJPAbcGOUiKOl3-19" value="" style="endArrow=none;html=1;rounded=0;entryX=0;entryY=0.5;entryDx=0;entryDy=0;exitX=1;exitY=1;exitDx=0;exitDy=0;" parent="1" source="fLYHL4tcDxd5EElu4zDd-4" target="Y3la6wGJPAbcGOUiKOl3-17" edge="1">
          <mxGeometry width="50" height="50" relative="1" as="geometry">
            <mxPoint x="10" y="780" as="sourcePoint" />
            <mxPoint x="100" y="880" as="targetPoint" />
          </mxGeometry>
        </mxCell>
        <mxCell id="Y3la6wGJPAbcGOUiKOl3-20" value="" style="endArrow=none;html=1;rounded=0;entryX=0;entryY=0;entryDx=0;entryDy=0;exitX=1;exitY=0.5;exitDx=0;exitDy=0;" parent="1" source="Y3la6wGJPAbcGOUiKOl3-17" target="SqUY4-1HLdQczIWp4SpF-1" edge="1">
          <mxGeometry width="50" height="50" relative="1" as="geometry">
            <mxPoint x="20" y="790" as="sourcePoint" />
            <mxPoint x="110" y="890" as="targetPoint" />
          </mxGeometry>
        </mxCell>
        <mxCell id="ULVxOpv6rLUxufifnIRL-2" value="" style="endArrow=none;html=1;rounded=0;entryX=0;entryY=0.5;entryDx=0;entryDy=0;exitX=1;exitY=0.5;exitDx=0;exitDy=0;" edge="1" parent="1" source="SqUY4-1HLdQczIWp4SpF-51" target="SqUY4-1HLdQczIWp4SpF-1">
          <mxGeometry width="50" height="50" relative="1" as="geometry">
            <mxPoint x="310" y="900" as="sourcePoint" />
            <mxPoint x="70" y="900" as="targetPoint" />
          </mxGeometry>
        </mxCell>
        <mxCell id="ULVxOpv6rLUxufifnIRL-7" value="1&lt;div&gt;&lt;br&gt;&lt;/div&gt;" style="text;html=1;align=center;verticalAlign=middle;whiteSpace=wrap;rounded=0;" vertex="1" parent="1">
          <mxGeometry x="510" y="865" width="60" height="30" as="geometry" />
        </mxCell>
        <mxCell id="ULVxOpv6rLUxufifnIRL-8" value="M" style="text;html=1;align=center;verticalAlign=middle;whiteSpace=wrap;rounded=0;" vertex="1" parent="1">
          <mxGeometry x="80" y="855" width="60" height="30" as="geometry" />
        </mxCell>
        <mxCell id="ULVxOpv6rLUxufifnIRL-10" value="M" style="text;html=1;strokeColor=none;fillColor=none;align=center;verticalAlign=middle;whiteSpace=wrap;rounded=0;" vertex="1" parent="1">
          <mxGeometry x="590" y="235" width="40" height="20" as="geometry" />
        </mxCell>
        <mxCell id="ULVxOpv6rLUxufifnIRL-11" value="1&lt;div&gt;&lt;br&gt;&lt;/div&gt;" style="text;html=1;align=center;verticalAlign=middle;whiteSpace=wrap;rounded=0;" vertex="1" parent="1">
          <mxGeometry x="560" y="820" width="60" height="30" as="geometry" />
        </mxCell>
        <mxCell id="ULVxOpv6rLUxufifnIRL-12" value="M" style="text;html=1;strokeColor=none;fillColor=none;align=center;verticalAlign=middle;whiteSpace=wrap;rounded=0;" vertex="1" parent="1">
          <mxGeometry x="15" y="580" width="40" height="20" as="geometry" />
        </mxCell>
        <mxCell id="ULVxOpv6rLUxufifnIRL-13" value="&lt;font face=&quot;Times New Roman&quot;&gt;room_no&lt;/font&gt;" style="ellipse;whiteSpace=wrap;html=1;" vertex="1" parent="1">
          <mxGeometry x="750" y="120" width="80" height="30" as="geometry" />
        </mxCell>
        <mxCell id="ULVxOpv6rLUxufifnIRL-14" value="" style="endArrow=none;html=1;rounded=0;exitX=1;exitY=0.25;exitDx=0;exitDy=0;entryX=0;entryY=1;entryDx=0;entryDy=0;" edge="1" parent="1" source="fLYHL4tcDxd5EElu4zDd-2" target="ULVxOpv6rLUxufifnIRL-13">
          <mxGeometry width="50" height="50" relative="1" as="geometry">
            <mxPoint x="670" y="175" as="sourcePoint" />
            <mxPoint x="721" y="110" as="targetPoint" />
          </mxGeometry>
        </mxCell>
        <mxCell id="ULVxOpv6rLUxufifnIRL-16" value="checkin" style="ellipse;whiteSpace=wrap;html=1;" vertex="1" parent="1">
          <mxGeometry x="-220" y="570" width="90" height="50" as="geometry" />
        </mxCell>
        <mxCell id="ULVxOpv6rLUxufifnIRL-17" value="checkout" style="ellipse;whiteSpace=wrap;html=1;" vertex="1" parent="1">
          <mxGeometry x="-140" y="630" width="90" height="50" as="geometry" />
        </mxCell>
        <mxCell id="ULVxOpv6rLUxufifnIRL-18" value="" style="endArrow=none;html=1;rounded=0;entryX=1;entryY=0;entryDx=0;entryDy=0;" edge="1" parent="1" target="ULVxOpv6rLUxufifnIRL-16">
          <mxGeometry width="50" height="50" relative="1" as="geometry">
            <mxPoint x="-70" y="570" as="sourcePoint" />
            <mxPoint x="-120" y="575" as="targetPoint" />
          </mxGeometry>
        </mxCell>
        <mxCell id="ULVxOpv6rLUxufifnIRL-19" value="" style="endArrow=none;html=1;rounded=0;entryX=0.5;entryY=0;entryDx=0;entryDy=0;exitX=0.5;exitY=1;exitDx=0;exitDy=0;" edge="1" parent="1" source="fLYHL4tcDxd5EElu4zDd-4" target="ULVxOpv6rLUxufifnIRL-17">
          <mxGeometry width="50" height="50" relative="1" as="geometry">
            <mxPoint x="-37" y="580" as="sourcePoint" />
            <mxPoint x="-145" y="620" as="targetPoint" />
          </mxGeometry>
        </mxCell>
      </root>
    </mxGraphModel>
  </diagram>
  <diagram id="hUpse5ehj6FRnO1Fl-fh" name="Page-2">
    <mxGraphModel dx="951" dy="412" grid="1" gridSize="10" guides="1" tooltips="1" connect="1" arrows="1" fold="1" page="1" pageScale="1" pageWidth="827" pageHeight="1169" math="0" shadow="0">
      <root>
        <mxCell id="0" />
        <mxCell id="1" parent="0" />
      </root>
    </mxGraphModel>
  </diagram>
</mxfile>
